<svg id="Capa_1" enable-background="new 0 0 512 512" height="512" viewBox="0 0 512 512" width="512" xmlns="http://www.w3.org/2000/svg" xmlns:xlink="http://www.w3.org/1999/xlink"><linearGradient id="SVGID_1_" gradientUnits="userSpaceOnUse" x1="256" x2="256" y1="316" y2="196"><stop offset="0" stop-color="#c3ffe8"/><stop offset=".9973" stop-color="#f0fff4"/></linearGradient><linearGradient id="SVGID_2_" gradientUnits="userSpaceOnUse" x1="256" x2="256" y1="512" y2="0"><stop offset="0" stop-color="#00b59c"/><stop offset="1" stop-color="#9cffac"/></linearGradient><g id="Networking_2_"><g><g><path d="m196 256c-8.291 0-15 6.709-15 15v30c0 8.291 6.709 15 15 15s15-6.709 15-15v-30c0-8.291-6.709-15-15-15zm60-30c-8.291 0-15 6.709-15 15v60c0 8.291 6.709 15 15 15s15-6.709 15-15v-60c0-8.291-6.709-15-15-15zm60-30c-8.291 0-15 6.709-15 15v90c0 8.291 6.709 15 15 15s15-6.709 15-15v-90c0-8.291-6.709-15-15-15z" fill="url(#SVGID_1_)"/></g></g><g><g><path d="m476.811 128.5c-18.984-32.944-60.703-49.219-117.188-45.806-1.207.071-2.525.41-3.739.5-24.514-50.669-59.848-83.194-99.884-83.194s-75.37 32.525-99.884 83.194c-1.214-.09-2.532-.428-3.739-.5-56.69-3.413-98.203 12.862-117.188 45.806-23.24 40.188-5.028 89.091 21.119 127.5-26.136 38.392-44.365 87.303-21.119 127.5 22.569 39.133 72.169 48.485 117.188 45.806 1.207-.071 2.525-.41 3.739-.5 24.514 50.669 59.848 83.194 99.884 83.194s75.37-32.525 99.884-83.194c1.214.09 2.532.428 3.739.5 45.114 2.685 94.657-6.739 117.188-45.806 23.24-40.188 5.028-89.091-21.119-127.5 26.136-38.392 44.364-87.303 21.119-127.5zm-127.455 26.711c-8.396-5.557-16.961-10.986-25.856-16.121-8.963-5.176-18.085-9.43-27.167-13.953 14.031-4.135 27.698-7.181 41.065-9.256 4.601 12.165 8.589 25.367 11.958 39.33zm-93.356-125.211c25.94 0 49.977 22.553 68.531 57.389-22.235 4.078-45.251 11.018-68.531 19.977-23.28-8.959-46.296-15.899-68.531-19.977 18.554-34.836 42.591-57.389 68.531-57.389zm-81.398 85.882c13.367 2.075 27.032 5.121 41.065 9.256-9.082 4.523-18.205 8.776-27.167 13.953-8.895 5.134-17.461 10.563-25.856 16.121 3.369-13.964 7.357-27.166 11.958-39.33zm-113.456 252.618c-12.197-21.101-6.722-52.672 14.566-87.23 14.594 17.109 31.703 33.71 50.984 49.299 3.889 24.86 9.646 48.058 17.053 68.939-40.378 1.087-70.43-9.947-82.603-31.008zm60.815-82.548c-10.227-9.776-19.418-19.753-27.66-29.952 8.242-10.199 17.434-20.176 27.66-29.952-.584 9.825-.961 19.784-.961 29.952s.377 20.127.961 29.952zm4.735-104.522c-19.281 15.59-36.39 32.19-50.984 49.299-21.288-34.557-26.763-66.129-14.566-87.23 15.045-26.016 52.586-31.908 82.626-31.073-7.417 20.901-13.183 44.118-17.076 69.004zm35.948 175.359c8.396 5.557 16.961 10.986 25.856 16.121 8.963 5.176 18.085 9.43 27.167 13.953-14.033 4.135-27.698 7.181-41.065 9.256-4.601-12.165-8.589-25.367-11.958-39.33zm93.356 125.211c-25.94 0-49.977-22.553-68.531-57.389 22.234-4.078 45.251-11.017 68.531-19.977 23.28 8.959 46.296 15.899 68.531 19.977-18.554 34.836-42.591 57.389-68.531 57.389zm81.398-85.882c-13.367-2.075-27.034-5.121-41.065-9.256 9.082-4.523 18.205-8.776 27.167-13.953 8.895-5.134 17.461-10.563 25.856-16.121-3.369 13.964-7.357 27.166-11.958 39.33zm19.784-82.125c-15.199 11.622-31.196 22.837-48.682 32.93-17.362 10.031-34.949 18.235-52.5 25.56-17.551-7.324-35.138-15.529-52.5-25.56-17.487-10.093-33.483-21.308-48.682-32.93-2.412-18.605-3.818-38-3.818-57.993s1.406-39.39 3.818-57.995c15.199-11.622 31.196-22.835 48.682-32.928 17.362-10.031 34.949-18.235 52.5-25.56 17.551 7.324 35.138 15.529 52.5 25.56 17.487 10.093 33.483 21.306 48.682 32.928 2.412 18.605 3.818 38.002 3.818 57.995s-1.406 39.388-3.818 57.993zm93.671-170.493c12.197 21.101 6.722 52.672-14.566 87.23-14.594-17.109-31.703-33.71-50.984-49.299-3.893-24.886-9.659-48.104-17.077-69.003 30.033-.836 67.58 5.052 82.627 31.072zm-60.814 82.548c10.227 9.776 19.418 19.753 27.66 29.952-8.242 10.199-17.434 20.176-27.66 29.952.584-9.825.961-19.784.961-29.952s-.377-20.127-.961-29.952zm60.814 142.452c-12.2 21.059-42.297 32.08-82.603 31.007 7.407-20.881 13.164-44.079 17.053-68.937 19.281-15.59 36.39-32.19 50.984-49.299 21.288 34.557 26.763 66.128 14.566 87.229z" fill="url(#SVGID_2_)"/></g></g></g></svg>